<?xml version="1.0" standalone="no"?>
<!DOCTYPE svg PUBLIC "-//W3C//DTD SVG 20010904//EN"
 "http://www.w3.org/TR/2001/REC-SVG-20010904/DTD/svg10.dtd">
<svg version="1.0" xmlns="http://www.w3.org/2000/svg"
 width="700.000000pt" height="700.000000pt" viewBox="0 0 700.000000 700.000000"
 preserveAspectRatio="xMidYMid meet">
<metadata>
Created by potrace 1.11, written by Peter Selinger 2001-2013
</metadata>
<g transform="translate(0.000000,700.000000) scale(0.100000,-0.100000)"
fill="#000000" stroke="none">
<path d="M3295 6984 c-211 -38 -396 -115 -565 -237 -82 -60 -238 -221 -298
-310 -73 -105 -134 -232 -171 -352 -61 -197 -60 -171 -57 -1510 1 -671 5
-1236 9 -1255 4 -19 10 -48 13 -65 4 -16 8 -37 10 -45 5 -35 44 -150 73 -217
142 -329 430 -596 767 -711 170 -58 236 -67 449 -66 136 1 176 5 266 27 495
121 853 483 977 987 l26 105 2 1235 c3 1335 4 1304 -51 1495 -89 310 -312 595
-594 759 -127 74 -294 134 -451 161 -76 13 -326 12 -405 -1z m419 -480 c69
-18 236 -92 236 -105 0 -5 6 -9 13 -9 22 0 164 -138 211 -204 71 -99 127 -227
142 -322 3 -20 8 -46 10 -58 6 -30 5 -2365 -1 -2398 -3 -16 -7 -39 -9 -53 -26
-148 -106 -304 -215 -418 -228 -240 -573 -322 -883 -211 -269 98 -475 336
-533 618 -14 69 -16 215 -16 1265 0 653 2 1193 5 1201 3 8 7 32 11 53 3 21 14
65 26 99 140 418 575 653 1003 542z"/>
<path d="M3245 5610 c-173 -37 -240 -263 -115 -389 68 -69 91 -73 386 -69 231
3 263 5 294 22 167 90 165 331 -4 418 -38 20 -57 22 -286 23 -135 1 -258 -2
-275 -5z"/>
<path d="M3230 4828 c-97 -27 -163 -117 -163 -224 1 -92 36 -153 118 -204 39
-25 43 -25 296 -28 176 -1 267 2 290 10 168 58 219 266 95 390 -60 59 -78 63
-351 64 -137 1 -266 -3 -285 -8z"/>
<path d="M3228 4050 c-171 -53 -219 -279 -85 -397 64 -56 104 -62 377 -59 229
2 248 4 286 24 139 72 171 253 66 370 -59 65 -70 67 -357 69 -143 1 -272 -2
-287 -7z"/>
<path d="M1537 4606 c-57 -21 -100 -58 -127 -112 l-24 -49 0 -520 c0 -455 5
-639 18 -711 2 -10 7 -39 11 -64 13 -81 16 -93 36 -169 83 -308 237 -605 435
-836 153 -179 313 -316 529 -450 194 -122 499 -233 740 -271 28 -4 53 -9 58
-10 4 -1 17 -2 30 -3 l23 -1 0 -470 c0 -420 -1 -470 -15 -471 -9 0 -153 0
-321 -1 -218 0 -317 -4 -348 -13 -124 -38 -189 -167 -150 -299 16 -54 90 -128
145 -144 59 -17 1790 -17 1848 1 58 17 129 91 143 149 7 26 12 64 12 85 0 51
-43 137 -84 168 -66 50 -92 53 -413 53 -164 1 -310 1 -324 1 l-25 1 0 470 c0
468 0 470 20 471 86 3 325 61 474 115 428 154 820 470 1063 857 40 65 142 263
171 332 73 179 127 403 145 605 4 41 7 311 7 600 l1 525 -24 45 c-54 104 -164
151 -278 119 -64 -18 -135 -87 -151 -149 -8 -31 -13 -212 -15 -590 -2 -300 -6
-554 -9 -565 -3 -11 -9 -41 -12 -67 -10 -73 -53 -230 -88 -321 -151 -397 -457
-723 -847 -904 -145 -67 -337 -124 -481 -141 -76 -9 -353 -9 -420 1 -98 14
-184 32 -255 53 -392 118 -731 380 -945 729 -91 148 -176 364 -204 515 -2 14
-7 36 -10 50 -16 67 -19 144 -23 663 -4 445 -7 565 -18 591 -48 114 -182 173
-298 132z"/>
</g>
</svg>
